<?xml version="1.0" encoding="UTF-8"?>
<svg width="752pt" height="752pt" version="1.1" viewBox="0 0 752 752" xmlns="http://www.w3.org/2000/svg">
 <path d="m550.37 554.67h-161.45l-55.969-224.59c15.07-2.1523 31.57 0.71875 45.207 9.3281 3.5859 2.1523 7.8945 0.71875 10.047-2.1523 19.375-32.289 61.711-43.055 94.715-23.68 2.1523 1.4336 5.7422 1.4336 7.8945 0 2.1523-1.4336 3.5859-4.3047 2.8711-7.1758-16.504-93.281-106.91-154.99-200.91-135.62l-4.3047-17.938c-0.71875-3.5859-5.0234-6.457-8.6094-5.0234-3.5859 0.71875-6.457 5.0234-5.0234 8.6094l4.3047 17.938c-92.566 25.836-142.8 124.14-113.38 213.11 2.1523 5.7422 10.047 6.457 12.914 1.4336 20.09-32.289 62.426-43.055 94.715-23.68 3.5859 2.1523 7.8945 0.71875 10.047-2.1523 8.6094-14.352 21.527-24.398 35.879-29.418l55.25 220.29h-86.105c-24.398 0-43.77 20.09-43.77 43.77 0 4.3047 2.8711 7.1758 7.1758 7.1758h336.53c4.3047 0 7.1758-2.8711 7.1758-7.1758-1.4375-23.676-20.812-43.047-45.207-43.047zm-73.91-260.47c-32.289-11.48-68.168-2.1523-91.129 22.961-11.48-42.336-36.594-109.07-68.883-136.33 72.473-5.0234 139.92 40.902 160.01 113.37zm-300.65 75.344c-16.504-72.473 21.527-145.66 88.258-175.08-12.914 32.289-10.047 94 2.8711 152.84-32.289-12.195-68.168-3.5859-91.129 22.246zm104.76-26.547c-18.656-85.387-11.48-152.84 8.6094-157.86 33.008-8.6094 73.191 102.61 81.801 134.9-31.57-11.484-67.449-2.1562-90.41 22.961zm-21.523 248.27c2.8711-12.914 15.07-22.242 28.703-22.242h262.62c13.633 0 25.832 9.3281 28.703 22.242z"/>
</svg>
