<?xml version="1.0" encoding="UTF-8"?>
<svg width="752pt" height="752pt" version="1.1" viewBox="0 0 752 752" xmlns="http://www.w3.org/2000/svg">
 <path d="m265.6 162.86c-7.2656 0.76172-12.766 6.9062-12.727 14.207v46.477c-0.011719 0.29297-0.011719 0.58984 0 0.88672v217.86c-0.027344 0.49219-0.027344 0.98438 0 1.4805v131.13-0.003906c0.015625 4.9492 2.6055 9.5312 6.832 12.098 4.2305 2.5664 9.4883 2.75 13.883 0.48438l102.4-53.43 102.4 53.43c4.3945 2.2656 9.6523 2.082 13.883-0.48438 4.2266-2.5664 6.8125-7.1484 6.832-12.098v-131.43c0.015625-0.39453 0.015625-0.78906 0-1.1836v-217.86c0.019532-0.44531 0.019532-0.89063 0-1.332v-46.031c0-7.8438-6.3594-14.207-14.207-14.207h-217.82c-0.49219-0.027344-0.98438-0.027344-1.4766 0zm15.684 28.418h189.41v18.945h-189.41zm0 47.363h189.41v189.45c-63.055-0.38281-126.2-0.66406-189.41 0zm93.52 18.945v-0.003907c-4.4492 0.39844-8.4492 2.8672-10.801 6.6602l-20.422 32.707-36.844 7.9922v0.003906c-5.0508 1.1055-9.0977 4.8672-10.574 9.8203-1.4766 4.9531-0.14844 10.316 3.4688 14.008l27.672 27.824-7.8438 35.227v-0.003907c-1.1328 5.2383 0.77344 10.668 4.9297 14.043 4.1602 3.3789 9.8633 4.1289 14.75 1.9414l36.844-16.43 36.844 16.43h0.003906c4.8906 2.1875 10.594 1.4375 14.754-1.9414 4.1562-3.375 6.0625-8.8047 4.9258-14.043l-7.8438-35.227 27.672-27.824 0.003906 0.003907c3.6172-3.6914 4.9453-9.0547 3.4688-14.008-1.4766-4.9531-5.5273-8.7148-10.574-9.8203l-36.844-7.9922-20.422-32.707v-0.003906c-2.8008-4.5039-7.8789-7.0742-13.168-6.6602zm1.1836 40.848 11.691 18.648v-0.003906c2.0273 3.2539 5.2812 5.5508 9.0234 6.3672l17.312 3.6992-14.945 15.098c-3.4062 3.4062-4.8555 8.3086-3.8477 13.023l3.4023 15.246-16.867-7.5469v-0.003906c-3.6719-1.6328-7.8672-1.6328-11.539 0l-16.867 7.5469 3.4023-15.246-0.003906 0.003906c1.0117-4.7148-0.4375-9.6172-3.8477-13.023l-14.945-15.098 17.312-3.6992h0.003906c3.7422-0.81641 6.9961-3.1133 9.0234-6.3672l11.691-18.648zm-54.453 157.62c49.664-0.21484 99.391 0.14062 149.16 0.44531v94.871l-88.191-46.027v-0.003906c-4.0859-2.1094-8.9375-2.1094-13.023 0l-88.191 46.027v-95.02c13.418-0.14062 26.824-0.23828 40.25-0.29297z"/>
</svg>
