<?xml version="1.0" encoding="UTF-8"?>
<svg width="752pt" height="752pt" version="1.1" viewBox="0 0 752 752" xmlns="http://www.w3.org/2000/svg">
 <path d="m560.7 308.91v-117.6c0-7.8477-6.3594-14.207-14.207-14.207h-326.77c-7.8477 0-14.207 6.3594-14.207 14.207 0 7.8477 6.3594 14.207 14.207 14.207h56.828v56.828c0 7.8477 6.3594 14.207 14.207 14.207h3.6953c-25.086 35.926-23.754 83.898 3.5742 118.44-54.898 28.324-92.512 85.465-92.512 151.5v14.207c0 7.8477 6.3594 14.207 14.207 14.207h312.56c7.8477 0 14.207-6.3594 14.207-14.207v-14.207c0-66.031-37.613-123.18-92.516-151.5 27.305-34.512 28.695-82.48 3.5781-118.44h3.6953c7.8477 0 14.207-6.3594 14.207-14.207v-56.832h56.828v103.39c-8.457 4.9219-14.207 13.98-14.207 24.477v28.414c0 7.8477 6.3594 14.207 14.207 14.207h28.414c7.8477 0 14.207-6.3594 14.207-14.207v-28.414c0.003906-10.488-5.7461-19.551-14.203-24.473zm-255.73-103.39h142.07v42.621h-142.07zm28.852 71.039h84.367c55.242 41.125 25.551 127.87-42.184 127.87-67.711 0-97.43-86.738-42.184-127.87zm184.26 269.94h-284.15c0-58.59 35.66-108.99 86.41-130.69 33.566 22.719 77.754 22.727 111.34 0 50.742 21.695 86.402 72.094 86.402 130.69z" fill="#fff"/>
</svg>
