<?xml version="1.0" encoding="UTF-8"?>
<svg width="752pt" height="752pt" version="1.1" viewBox="0 0 752 752" xmlns="http://www.w3.org/2000/svg">
 <path d="m527.55 229.19c-13.059 0-21.184 2.5664-31.543 7.4453l-75.309 35.473-94.418-23.68c-2.0859-0.52344-3.6484-0.41016-5.3281 0.14844l-56.828 18.941c-3.5977 1.168-6.3047 4.6758-6.5273 8.4531-0.22266 3.7734 2.0586 7.5781 5.4922 9.1602 0 0 35.18 15.992 65.117 30.34l-65.566 30.93-33.891-16.871c-2.1328-1.0625-4.6719-1.2773-6.957-0.59375l-47.359 14.207c-6.3008 1.8398-8.668 11.227-3.9961 15.836 0 0 57.777 57.898 58.266 58.398 8.9102 9.1016 21.043 10.684 28.906 10.715 5.6797 0 11.797-1.2227 17.691-3.5 1.7227-0.66797 83.684-37.492 83.684-37.492l-20.719 124.61c-1.1094 6.6016 6.6641 12.855 12.875 10.359l47.359-18.941c2.293-0.91406 4.1992-2.7656 5.1797-5.0312l69.707-162.65s90.902-43.113 92.852-44.324c3.3047-2.0469 6.4531-4.3867 9.2617-7.0273 4.4648-4.1992 8.8828-9.1562 8.8828-17.02 0-7.9414-4.2891-12.914-7.4023-16.133-10.344-10.691-27.375-21.754-49.43-21.754zm0 18.941c13.727 0 25.082 6.2305 32.844 13.137 7.0703 5.5039 2.2539 9.6562-2.5352 12.535-1.9414 1.3203-95.871 46.254-95.871 46.254-2.0781 0.9375-3.7969 2.6562-4.7344 4.7344l-69.559 162.2-27.973 11.246 20.867-125.5c1.1094-6.6992-6.9609-12.953-13.172-10.211 0 0-96.629 43.617-97.461 43.941-4.082 1.5898-9.4531 2.6797-12.348 2.6797-4.7383 0-11.285-1.457-14.98-4.5977-0.48438-0.41016-47.621-47.793-47.621-47.793l28.562-8.582 34.484 17.316c2.5703 1.25 5.7148 1.25 8.2891 0l234.54-110.37c8.4258-4.5156 18.156-6.9961 26.664-6.9961zm-203.49 19.238 69.559 17.465-43.363 20.273c-22.742-11.168-42.422-20.191-57.719-27.23zm-147.84 274.38c-4.9609 0.23047-9.2617 4.957-9.0312 9.918 0.23437 4.957 4.957 9.2578 9.918 9.0273h397.81c5.0039 0.070312 9.6055-4.4688 9.6055-9.4727 0-5.0039-4.6016-9.543-9.6055-9.4727h-397.81c-0.29688-0.011718-0.59375-0.011718-0.88672 0z"/>
</svg>
